<svg viewBox="52.489619238476955 231.32172000000003 489.10781563126255 132.35418" xmlns="http://www.w3.org/2000/svg" data-name="Layer 1" id="Layer_1" style="max-height: 500px" width="489.10781563126255" height="132.35418">
  <defs>
    <style>
      .cls-1 {
        fill: #cbcbcb;
      }

      .cls-1, .cls-2, .cls-3, .cls-4, .cls-5, .cls-6 {
        stroke-width: 0px;
      }

      .cls-2 {
        fill: #cb4729;
      }

      .cls-3 {
        fill: #f3f4f5;
      }

      .cls-4 {
        fill: #f68d4e;
      }

      .cls-5 {
        fill: #fff;
      }

      .cls-6 {
        fill: #0e1333;
      }
    </style>
  </defs>
  <rect height="596.6" width="596.6" y="-.18" x="-1.33" class="cls-6"/>
  <g>
    <g>
      <path d="M185.17,308.57c0,4.29-1.46,7.51-4.37,9.68-2.92,2.17-7.06,3.25-12.44,3.25h-15.04v-47.17h14.21c1.98,0,3.92.16,5.82.49,1.9.33,3.61.93,5.11,1.83,1.51.89,2.73,2.14,3.67,3.74.94,1.6,1.41,3.68,1.41,6.24,0,2.39-.61,4.57-1.83,6.55-1.22,1.98-3.05,3.4-5.51,4.27,3.01.94,5.26,2.25,6.74,3.94,1.48,1.69,2.22,4.08,2.22,7.19ZM176.13,287.6c0-1.38-.26-2.51-.78-3.38-.52-.87-1.19-1.54-2.01-2.02-.82-.47-1.74-.78-2.75-.93-1.01-.15-2.04-.22-3.07-.22h-6.72v13.09h6.72c1.04,0,2.06-.07,3.07-.22,1.01-.14,1.93-.45,2.75-.93.82-.47,1.49-1.14,2.01-2.02.52-.87.78-2,.78-3.38ZM177.76,307.8c0-2.36-.83-4.11-2.48-5.24-1.65-1.13-3.96-1.7-6.92-1.7h-7.55v13.92h7.55c2.96,0,5.27-.57,6.92-1.72,1.65-1.14,2.48-2.9,2.48-5.26Z" class="cls-5"/>
      <path d="M222.31,295.8c-.89-.43-1.8-.77-2.73-.99s-1.99-.34-3.2-.34c-1.66,0-3.22.25-4.68.74-1.46.49-2.72,1.24-3.78,2.22-1.06.99-1.89,2.22-2.48,3.71s-.89,3.24-.89,5.26v8.39h7.56v6.72h-22.67v-6.72h7.63v-20.21h-7.63v-6.76h15.11v8.46c1.23-3.37,3.04-5.76,5.44-7.16,2.4-1.4,5.25-2.1,8.55-2.1,1.04,0,2.12.11,3.25.33,1.13.22,2.24.6,3.33,1.16l-2.82,7.3Z" class="cls-5"/>
      <path d="M261.9,304.7c0,2.63-.42,5.01-1.25,7.16-.83,2.15-2.02,3.99-3.58,5.55-1.55,1.55-3.42,2.77-5.59,3.63-2.17.87-4.59,1.3-7.27,1.3s-5.02-.43-7.19-1.3c-2.17-.87-4.03-2.08-5.59-3.63-1.55-1.55-2.75-3.4-3.58-5.55-.83-2.14-1.25-4.53-1.25-7.16s.42-4.92,1.25-7.1,2.02-4.06,3.58-5.64c1.55-1.58,3.42-2.8,5.59-3.65,2.17-.85,4.57-1.28,7.19-1.28s5.1.43,7.27,1.28c2.17.86,4.03,2.07,5.59,3.65,1.55,1.58,2.75,3.46,3.58,5.64s1.25,4.55,1.25,7.1ZM254.42,304.71c0-1.52-.23-2.96-.7-4.33-.47-1.36-1.15-2.53-2.03-3.49-.89-.96-1.96-1.73-3.22-2.3-1.26-.57-2.67-.85-4.23-.85s-3,.28-4.25.85c-1.25.57-2.31,1.33-3.17,2.3-.86.97-1.53,2.13-2,3.49-.47,1.36-.7,2.81-.7,4.33s.23,3.04.7,4.35c.47,1.3,1.13,2.45,2,3.44.86.99,1.92,1.76,3.17,2.3,1.25.54,2.67.81,4.25.81s2.97-.27,4.23-.81,2.34-1.31,3.22-2.3c.89-.99,1.57-2.14,2.03-3.44.47-1.3.7-2.75.7-4.35Z" class="cls-5"/>
      <path d="M299.98,287.81l-5.06,33.69h-9.25l-3.54-20.28-3.61,20.28h-9.25l-5.06-33.69h7.34l2.96,22.52,3.61-22.52h7.92l3.65,22.52,2.96-22.52h7.34Z" class="cls-5"/>
      <path d="M335.06,321.5h-7.48v-20.79c0-2.63-.49-4.45-1.48-5.46-.99-1.01-2.42-1.52-4.3-1.52-2.77,0-5.03,1.12-6.78,3.36-1.75,2.24-2.62,5.34-2.62,9.29v15.11h-7.48v-33.69h7.48v8.46c.75-2.92,2.13-5.19,4.16-6.81,2.02-1.63,4.52-2.44,7.48-2.44,3.45,0,6.15,1.12,8.1,3.36,1.95,2.24,2.93,5.69,2.93,10.34v20.79Z" class="cls-5"/>
      <path d="M374.65,308.57c0,4.29-1.46,7.51-4.37,9.68-2.92,2.17-7.06,3.25-12.44,3.25h-15.04v-47.17h14.21c1.98,0,3.92.16,5.82.49,1.9.33,3.61.93,5.12,1.83,1.51.89,2.73,2.14,3.67,3.74.94,1.6,1.41,3.68,1.41,6.24,0,2.39-.61,4.57-1.83,6.55-1.22,1.98-3.05,3.4-5.51,4.27,3.01.94,5.26,2.25,6.74,3.94,1.48,1.69,2.22,4.08,2.22,7.19ZM365.62,287.6c0-1.38-.26-2.51-.78-3.38-.52-.87-1.19-1.54-2.01-2.02-.82-.47-1.73-.78-2.75-.93-1.01-.15-2.04-.22-3.07-.22h-6.72v13.09h6.72c1.04,0,2.06-.07,3.07-.22,1.01-.14,1.93-.45,2.75-.93s1.49-1.14,2.01-2.02c.52-.87.78-2,.78-3.38ZM367.24,307.8c0-2.36-.83-4.11-2.48-5.24-1.65-1.13-3.96-1.7-6.92-1.7h-7.56v13.92h7.56c2.96,0,5.27-.57,6.92-1.72,1.65-1.14,2.48-2.9,2.48-5.26Z" class="cls-5"/>
      <path d="M411.79,295.8c-.89-.43-1.8-.77-2.73-.99-.93-.23-1.99-.34-3.2-.34-1.66,0-3.22.25-4.68.74-1.46.49-2.72,1.24-3.78,2.22-1.06.99-1.89,2.22-2.48,3.71-.59,1.48-.88,3.24-.88,5.26v8.39h7.55v6.72h-22.66v-6.72h7.63v-20.21h-7.63v-6.76h15.11v8.46c1.23-3.37,3.04-5.76,5.44-7.16,2.4-1.4,5.25-2.1,8.55-2.1,1.04,0,2.12.11,3.25.33,1.13.22,2.24.6,3.33,1.16l-2.82,7.3Z" class="cls-5"/>
      <path d="M442.69,321.5h-22.63v-6.72h7.45v-20.24h-7.45v-6.72h14.93v26.97h7.7v6.72ZM435.82,283.44h-9.11v-9.11h9.11v9.11Z" class="cls-5"/>
      <path d="M479.93,316.73c-2.17,2.16-4.45,3.63-6.85,4.42-2.4.79-4.99,1.19-7.79,1.19s-5.38-.42-7.68-1.26c-2.3-.84-4.25-2.03-5.86-3.56-1.6-1.53-2.83-3.38-3.69-5.55-.86-2.17-1.28-4.59-1.28-7.26s.43-4.92,1.28-7.1c.85-2.18,2.01-4.05,3.47-5.6,1.46-1.55,3.17-2.77,5.14-3.65,1.97-.88,4.07-1.32,6.28-1.32s4.32.48,6.03,1.45c1.71.96,2.95,2.37,3.72,4.23v-4.88h6.72v15.69h-6.72c0-2.96-.81-5.33-2.43-7.1-1.62-1.77-3.73-2.66-6.32-2.66-1.03,0-2.12.21-3.26.63-1.14.42-2.18,1.08-3.13,1.97-.95.89-1.73,2.03-2.36,3.4-.62,1.38-.94,3.03-.94,4.96s.3,3.51.9,4.87c.6,1.36,1.39,2.49,2.36,3.37.98.88,2.13,1.54,3.47,1.99,1.34.45,2.71.67,4.13.67,2.43,0,4.54-.38,6.33-1.14,1.79-.76,3.34-1.77,4.64-3.02l3.83,5.27Z" class="cls-5"/>
      <path d="M515.41,321.5h-9.69l-11.28-13.63-3.4,3.47v10.16h-7.48v-47.17h7.48v27.76l13.48-14.28h10.27l-15.54,15.47,16.16,18.22Z" class="cls-5"/>
    </g>
    <g>
      <path d="M78.12,341.01v-17.92c0-3.34,2.07-6.34,5.2-7.52l42.52-16.03c5.26-1.98,10.87,1.9,10.87,7.52v6.41c0,3.35-2.08,6.35-5.21,7.52l-53.37,20.02Z" class="cls-2"/>
      <path d="M78.12,335.32v-17.92c0-3.34,2.07-6.34,5.2-7.52l42.52-16.03c5.26-1.98,10.87,1.9,10.87,7.52v6.41c0,3.35-2.08,6.35-5.21,7.52l-53.37,20.02Z" class="cls-4"/>
      <path d="M78.12,303.35v-17.92c0-3.34,2.07-6.34,5.2-7.52l42.52-16.03c5.26-1.98,10.87,1.9,10.87,7.52v6.41c0,3.35-2.08,6.35-5.21,7.52l-53.37,20.02Z" class="cls-1"/>
      <path d="M78.12,297.65v-17.92c0-3.34,2.07-6.34,5.2-7.52l42.52-16.03c5.26-1.98,10.87,1.9,10.87,7.52v6.41c0,3.35-2.08,6.35-5.21,7.52l-53.37,20.02Z" class="cls-3"/>
    </g>
  </g>
</svg>