<svg xmlns="http://www.w3.org/2000/svg" fill="none" viewBox="0 0.06 223.96 35.88">
<path opacity="0.56" d="M17.5504 31.9443C19.3187 32.9099 21.1706 33.6144 23.0045 34.0307C21.6257 35.4876 19.4625 36.3584 16.5054 35.7342C16.1728 35.664 15.9609 35.3418 16.0416 35.0141C16.3007 33.962 16.818 32.8926 17.5527 31.9466L17.5504 31.9443Z" fill="#02C153"/>
<path opacity="0.88" d="M42.5925 21.1269C42.6732 20.7992 42.4702 20.4684 42.1437 20.3739C29.2745 16.6471 22.7037 26.4795 23.0045 34.0306C33.1807 35.9573 40.8219 28.3228 42.5925 21.1269Z" fill="#027B35"/>
<path opacity="0.72" d="M1.62104 9.76299C0.943894 9.68531 0.339523 10.1749 0.252066 10.8453C-2.11273 28.9708 12.678 35.9279 23.0045 34.0309C23.6443 19.8612 11.8548 10.9381 1.62104 9.76299Z" fill="#02C153"/>
<path d="M11.438 0.133786C11.137 -0.0259248 10.7611 0.085235 10.5817 0.373338C-0.296875 17.8449 11.6818 31.4671 23.0018 34.0303C29.9348 19.7845 21.4793 5.4606 11.438 0.133786Z" fill="#02C153"/>
<path d="M32.6711 4.34648C32.63 4.30976 32.5642 4.31203 32.5254 4.35113C28.451 8.44574 29.9889 10.9039 32.5874 14.0588C32.626 14.1057 32.6985 14.1092 32.7421 14.0668C36.3573 10.5513 36.5731 7.83331 32.6711 4.34648Z" fill="#FAC84C"/>
<path opacity="0.8" d="M27.9052 9.27039C27.8458 9.33535 27.8493 9.43919 27.9126 9.50063C31.9931 13.4665 34.4611 11.982 37.6063 9.44012C37.682 9.37889 37.6877 9.26439 37.6191 9.19551C34.1108 5.6704 31.3862 5.46395 27.9052 9.27039Z" fill="#FAC84C"/>
<mask id="mask0_462_28895" style="mask-type:luminance" maskUnits="userSpaceOnUse" x="53" y="5" width="171" height="26">
<path d="M223.958 5.09082H53.4028V30.5767H223.958V5.09082Z" fill="white"/>
</mask>
<g mask="url(#mask0_462_28895)">
<path opacity="0.08" d="M184.574 11.3789C183.836 11.3789 183.239 11.9717 183.239 12.7028V29.2521C183.239 29.9833 183.836 30.5761 184.574 30.5761H222.623C223.361 30.5761 223.958 29.9833 223.958 29.2521V12.7028C223.958 11.9717 223.361 11.3789 222.623 11.3789H184.574Z" fill="white"/>
<g opacity="0.88">
<path d="M209.022 22.55C209.022 23.8756 207.939 24.9497 206.602 24.9497C205.265 24.9497 204.182 23.8756 204.182 22.55C204.182 21.2244 205.265 20.1504 206.602 20.1504C207.939 20.1504 209.022 21.2244 209.022 22.55Z" fill="white"/>
<path d="M198.008 22.55C198.008 23.8756 196.925 24.9497 195.588 24.9497C194.251 24.9497 193.168 23.8756 193.168 22.55C193.168 21.2244 194.251 20.1504 195.588 20.1504C196.925 20.1504 198.008 21.2244 198.008 22.55Z" fill="white"/>
<path fill-rule="evenodd" clip-rule="evenodd" d="M184.574 11.3789C183.836 11.3789 183.239 11.9717 183.239 12.7028V29.2521C183.239 29.9833 183.836 30.5761 184.574 30.5761H222.623C223.361 30.5761 223.958 29.9833 223.958 29.2521V12.7028C223.958 11.9717 223.361 11.3789 222.623 11.3789H184.574ZM187.244 14.606H189.58V27.349H187.244V14.606ZM213.144 26.4008C212.574 25.8564 212.284 25.165 212.276 24.3248H214.591C214.591 25.1226 215.353 25.1226 216.115 25.1226C216.877 25.1226 217.639 25.1226 217.639 24.4827C217.639 23.9751 216.808 23.7669 215.801 23.5144C214.249 23.1253 212.276 22.6311 212.276 20.7746C212.35 20.0042 212.683 19.3477 213.242 18.8066C213.959 18.102 214.962 17.7504 216.249 17.7504C217.472 17.7504 218.417 18.0662 219.085 18.6978C219.656 19.2421 219.946 19.9335 219.953 20.7737H217.639C217.639 19.976 216.877 19.976 216.115 19.976C215.352 19.976 214.591 19.976 214.591 20.6192C214.591 21.1255 215.42 21.3332 216.427 21.5852C217.98 21.9737 219.953 22.4676 219.953 24.3248C219.879 25.0952 219.546 25.7508 218.987 26.2927C218.271 26.9974 217.267 27.349 215.98 27.349C214.757 27.349 213.813 27.0332 213.144 26.4008ZM204.099 18.4415C204.829 18.0029 205.687 17.7504 206.602 17.7504C209.275 17.7504 211.442 19.8993 211.442 22.5497C211.442 25.2001 209.275 27.349 206.602 27.349C205.687 27.349 204.829 27.0965 204.099 26.6578V27.349H201.763V14.606H204.099V18.4415ZM195.588 17.7504C192.916 17.7504 190.748 19.8993 190.748 22.5497C190.748 25.2001 192.916 27.349 195.588 27.349C196.504 27.349 197.361 27.0965 198.091 26.6578V27.349H200.428V17.7504H198.091V18.4415C197.361 18.0029 196.504 17.7504 195.588 17.7504Z" fill="white"/>
</g>
<path d="M58.0756 5.09082H53.4028V30.5767H58.0756V5.09082Z" fill="white"/>
<path d="M156.564 16.0127V11.3789H147.219V16.0127H156.564Z" fill="white"/>
<path d="M154.165 5.09082H149.492V30.5767H154.165V5.09082Z" fill="white"/>
<path d="M80.1729 11.3789C74.8276 11.3789 70.4937 15.6768 70.4937 20.9775C70.4937 26.2782 74.8276 30.5761 80.1729 30.5761C85.5182 30.5761 89.8522 26.2782 89.8522 20.9775C89.8522 15.6768 85.5182 11.3789 80.1729 11.3789ZM85.0126 20.9775C85.0126 23.6287 82.8464 25.7768 80.1729 25.7768C77.4994 25.7768 75.3333 23.6287 75.3333 20.9775C75.3333 18.3263 77.4994 16.1782 80.1729 16.1782C82.8464 16.1782 85.0126 18.3263 85.0126 20.9775Z" fill="white"/>
<path d="M75.1664 5.09082H70.4937V30.5767H75.1664V5.09082Z" fill="white"/>
<path d="M135.203 11.3789C129.857 11.3789 125.524 15.6768 125.524 20.9775C125.524 26.2782 129.857 30.5761 135.203 30.5761C140.547 30.5761 144.882 26.2782 144.882 20.9775C144.882 15.6768 140.547 11.3789 135.203 11.3789ZM140.043 20.9775C140.043 23.6287 137.876 25.7768 135.203 25.7768C132.529 25.7768 130.363 23.6287 130.363 20.9775C130.363 18.3263 132.529 16.1782 135.203 16.1782C137.876 16.1782 140.043 18.3263 140.043 20.9775Z" fill="white"/>
<path d="M144.882 11.3789H140.21V30.5761H144.882V11.3789Z" fill="white"/>
<path d="M101.534 11.3789C96.1887 11.3789 91.8547 15.6768 91.8547 20.9775C91.8547 26.2782 96.1887 30.5761 101.534 30.5761C104.208 30.5761 106.628 29.502 108.378 27.7644L104.96 24.3668C104.084 25.2373 102.873 25.7768 101.534 25.7768C99.4265 25.7768 97.6335 24.4413 96.9701 22.5778H111.214V20.9775C111.214 15.6768 106.879 11.3789 101.534 11.3789ZM96.9701 19.3772C97.6335 17.5137 99.4265 16.1782 101.534 16.1782C103.641 16.1782 105.434 17.5137 106.099 19.3772H96.9701Z" fill="white"/>
<path d="M168.219 11.3789C162.874 11.3789 158.54 15.6768 158.54 20.9775C158.54 26.2782 162.874 30.5761 168.219 30.5761C170.892 30.5761 173.312 29.502 175.063 27.7644L171.645 24.3668C170.769 25.2373 169.557 25.7768 168.219 25.7768C166.111 25.7768 164.319 24.4413 163.655 22.5778H177.898V20.9775C177.898 15.6768 173.565 11.3789 168.219 11.3789ZM163.655 19.3772C164.319 17.5137 166.111 16.1782 168.219 16.1782C170.327 16.1782 172.119 17.5137 172.783 19.3772H163.655Z" fill="white"/>
<path d="M118.557 11.3789H113.884V30.5761H118.557V11.3789Z" fill="white"/>
<path d="M123.521 11.3789C118.199 11.3789 113.884 15.6586 113.884 20.9361H118.557C118.557 18.2568 120.819 16.0855 123.521 16.0855V11.3789Z" fill="white"/>
<path d="M66.6552 14.5244H61.9824V30.5772H66.6552V14.5244Z" fill="white"/>
<path d="M64.3187 11.3796C66.07 11.3796 67.4895 9.97183 67.4895 8.23519C67.4895 6.49865 66.07 5.09082 64.3187 5.09082C62.5676 5.09082 61.1479 6.49865 61.1479 8.23519C61.1479 9.97183 62.5676 11.3796 64.3187 11.3796Z" fill="white"/>
</g>
</svg>